#define backward_width 20
#define backward_height 20
static unsigned char backward_bits[] = {
   0x00, 0x00, 0x00, 0x00, 0x00, 0x00, 0x00, 0x00, 0x00, 0x00, 0x00, 0x00,
   0x00, 0x00, 0x00, 0x00, 0xc0, 0x00, 0x00, 0xf0, 0x00, 0x00, 0xfc, 0x00,
   0x00, 0xff, 0x00, 0xc0, 0xff, 0x00, 0xe0, 0xff, 0x00, 0xc0, 0xff, 0x00,
   0x00, 0xff, 0x00, 0x00, 0xfc, 0x00, 0x00, 0xf0, 0x00, 0x00, 0xc0, 0x00,
   0x00, 0x00, 0x00, 0x00, 0x00, 0x00, 0x00, 0x00, 0x00, 0x00, 0x00, 0x00 };
