#define delete_width 20
#define delete_height 20
static unsigned char delete_bits[] = {
   0x00, 0x00, 0x00, 0x00, 0x00, 0x00, 0x00, 0x00, 0x00, 0x00, 0x00, 0x00,
   0x30, 0xc0, 0x00, 0x70, 0xe0, 0x00, 0xe0, 0x70, 0x00, 0xc0, 0x39, 0x00,
   0x80, 0x1f, 0x00, 0x00, 0x0f, 0x00, 0x00, 0x0f, 0x00, 0x80, 0x1f, 0x00,
   0xc0, 0x39, 0x00, 0xe0, 0x70, 0x00, 0x70, 0xe0, 0x00, 0x30, 0xc0, 0x00,
   0x00, 0x00, 0x00, 0x00, 0x00, 0x00, 0x00, 0x00, 0x00, 0x00, 0x00, 0x00 };
