#define edit_width 20
#define edit_height 20
static unsigned char edit_bits[] = {
   0x00, 0x00, 0x00, 0x00, 0x00, 0x00, 0x00, 0x40, 0x00, 0x00, 0xa0, 0x00,
   0x00, 0x10, 0x01, 0x00, 0x28, 0x03, 0x00, 0xc4, 0x01, 0x00, 0xc2, 0x00,
   0x00, 0x61, 0x00, 0x80, 0x30, 0x00, 0x40, 0x18, 0x00, 0x20, 0x0c, 0x00,
   0x60, 0x06, 0x00, 0xd0, 0x03, 0x00, 0x90, 0x01, 0x00, 0x78, 0x00, 0x00,
   0x08, 0x00, 0x00, 0x00, 0x00, 0x00, 0x00, 0x00, 0x00, 0x00, 0x00, 0x00 };
