#define forward_width 20
#define forward_height 20
static unsigned char forward_bits[] = {
   0x00, 0x00, 0x00, 0x00, 0x00, 0x00, 0x00, 0x00, 0x00, 0x00, 0x00, 0x00,
   0x00, 0x00, 0x00, 0x30, 0x00, 0x00, 0xf0, 0x00, 0x00, 0xf0, 0x03, 0x00,
   0xf0, 0x0f, 0x00, 0xf0, 0x3f, 0x00, 0xf0, 0x7f, 0x00, 0xf0, 0x3f, 0x00,
   0xf0, 0x0f, 0x00, 0xf0, 0x03, 0x00, 0xf0, 0x00, 0x00, 0x30, 0x00, 0x00,
   0x00, 0x00, 0x00, 0x00, 0x00, 0x00, 0x00, 0x00, 0x00, 0x00, 0x00, 0x00 };
