#define left_width 20
#define left_height 20
static unsigned char left_bits[] = {
   0x00, 0x00, 0x00, 0x00, 0x00, 0x00, 0x00, 0x00, 0x00, 0x00, 0x18, 0x00,
   0x00, 0x3c, 0x00, 0x00, 0x1e, 0x00, 0x00, 0x0f, 0x00, 0x80, 0x07, 0x00,
   0xc0, 0x03, 0x00, 0xe0, 0x01, 0x00, 0xe0, 0x01, 0x00, 0xc0, 0x03, 0x00,
   0x80, 0x07, 0x00, 0x00, 0x0f, 0x00, 0x00, 0x1e, 0x00, 0x00, 0x3c, 0x00,
   0x00, 0x18, 0x00, 0x00, 0x00, 0x00, 0x00, 0x00, 0x00, 0x00, 0x00, 0x00 };
