#define menu_width 20
#define menu_height 20
static unsigned char menu_bits[] = {
   0x00, 0x00, 0x00, 0x00, 0x00, 0x00, 0x00, 0x00, 0x00, 0x38, 0xff, 0x01,
   0x38, 0xff, 0x01, 0x38, 0xff, 0x01, 0x00, 0x00, 0x00, 0x00, 0x00, 0x00,
   0x38, 0xff, 0x01, 0x38, 0xff, 0x01, 0x38, 0xff, 0x01, 0x00, 0x00, 0x00,
   0x00, 0x00, 0x00, 0x38, 0xff, 0x01, 0x38, 0xff, 0x01, 0x38, 0xff, 0x01,
   0x00, 0x00, 0x00, 0x00, 0x00, 0x00, 0x00, 0x00, 0x00, 0x00, 0x00, 0x00 };
