#define show_width 20
#define show_height 20
static unsigned char show_bits[] = {
   0x00, 0x00, 0x00, 0x00, 0x00, 0x00, 0x00, 0x00, 0x00, 0x00, 0x00, 0x00,
   0x00, 0x00, 0x00, 0x10, 0x80, 0x00, 0x38, 0xc0, 0x01, 0x78, 0xe0, 0x01,
   0xf0, 0xf0, 0x00, 0xe0, 0x79, 0x00, 0xc0, 0x3f, 0x00, 0x80, 0x1f, 0x00,
   0x00, 0x0f, 0x00, 0x00, 0x06, 0x00, 0x00, 0x00, 0x00, 0x00, 0x00, 0x00,
   0x00, 0x00, 0x00, 0x00, 0x00, 0x00, 0x00, 0x00, 0x00, 0x00, 0x00, 0x00 };
